<svg width="48" height="48" viewBox="0 0 48 48" fill="none" xmlns="http://www.w3.org/2000/svg">
<g id="bitcoin-icons:cart-outline">
<g id="Group">
<path id="Vector" d="M20 41C21.6569 41 23 39.6569 23 38C23 36.3431 21.6569 35 20 35C18.3431 35 17 36.3431 17 38C17 39.6569 18.3431 41 20 41Z" stroke="#C9AB79"/>
<path id="Vector_2" d="M34 41C35.6569 41 37 39.6569 37 38C37 36.3431 35.6569 35 34 35C32.3431 35 31 36.3431 31 38C31 39.6569 32.3431 41 34 41Z" stroke="#C9AB79"/>
<path id="Vector_3" d="M7 8H11L18.008 30H34" stroke="#C9AB79" stroke-linecap="round" stroke-linejoin="round"/>
<path id="Vector_4" d="M16.4481 25L12.6001 13H37.6141C37.7726 12.9998 37.9289 13.0373 38.0701 13.1094C38.2113 13.1815 38.3334 13.2861 38.4261 13.4147C38.5189 13.5432 38.5798 13.692 38.6038 13.8487C38.6278 14.0054 38.6142 14.1656 38.5641 14.316L35.2301 24.316C35.1638 24.515 35.0366 24.6882 34.8665 24.811C34.6963 24.9337 34.4919 24.9998 34.2821 25H16.4481Z" stroke="#C9AB79" stroke-linecap="round" stroke-linejoin="round"/>
</g>
</g>
</svg>
