<svg width="128" height="81" viewBox="0 0 128 81" fill="none" xmlns="http://www.w3.org/2000/svg">
<g id="&#208;&#155;&#208;&#190;&#208;&#179;&#208;&#190;&#209;&#130;&#208;&#184;&#208;&#191; 1" clip-path="url(#clip0_31_18)">
<g id="g8">
<g id="g12">
<g id="Clip path group">
<mask id="mask0_31_18" style="mask-type:luminance" maskUnits="userSpaceOnUse" x="-43" y="-67" width="214" height="214">
<g id="clipPath18">
<path id="path16" d="M-42.5728 -66.5374H170.546V146.581H-42.5728V-66.5374Z" fill="white"/>
</g>
</mask>
<g mask="url(#mask0_31_18)">
<g id="g14">
<g id="g20">
<path id="path22" d="M13.1208 55.9921H11.7153C12.0667 54.0896 10.4785 52.687 7.96473 52.687C4.67394 52.687 2.20003 55.0895 1.57187 58.6916C0.943336 62.2936 2.5485 64.6961 5.85658 64.6961C8.40756 64.6961 10.5127 63.2364 10.8642 61.2594H12.2524C11.8438 63.5875 9.14737 65.2701 5.76523 65.2701C1.57187 65.2701 -0.573493 62.6451 0.129097 58.6916C0.832063 54.738 3.89993 52.113 8.11322 52.113C11.4183 52.113 13.5264 53.7381 13.1208 55.9921Z" fill="#E4DFDC"/>
</g>
<g id="g24">
<path id="path26" d="M21.3591 60.3169C21.7305 58.2287 20.7877 56.695 19.1795 56.695C17.5541 56.695 16.1489 58.3231 15.706 60.7797C15.3004 63.145 16.0571 64.5674 17.4428 64.5674C19.051 64.5674 20.9362 62.7021 21.3591 60.3169ZM19.0882 56.1777C20.5279 56.1777 21.5448 56.8634 22.0248 58.046L22.5989 56.5292C22.6902 56.3807 22.856 56.2894 23.0244 56.2894H23.4473L22.2474 63.1078C22.082 64.0306 22.2275 64.5505 22.6729 64.5505C23.0586 64.5505 23.4845 64.1047 23.8556 63.422L24.1698 63.5134C23.7071 64.5674 22.9301 65.27 21.9876 65.27C21.0647 65.27 20.6764 64.5674 20.9163 63.2363L21.0448 62.5337C19.9565 64.2363 18.4025 65.27 16.8887 65.27C14.9662 65.27 13.8577 63.6077 14.3377 60.891C14.8377 58.046 16.7229 56.1777 19.0882 56.1777Z" fill="#E4DFDC"/>
</g>
<g id="g28">
<path id="path30" d="M25.5498 65.1588L27.1208 56.289H27.8406C27.9891 56.289 28.0809 56.3634 28.0809 56.492L27.9151 58.9313C28.9492 57.2119 30.4461 56.1777 31.96 56.1777C33.7339 56.1777 34.7508 57.5833 34.3079 59.7084L33.6426 62.942C33.4396 63.9762 33.6053 64.5502 34.0482 64.5502C34.4196 64.5502 34.862 64.1047 35.2308 63.4221L35.5451 63.5134C35.065 64.5675 34.288 65.2701 33.3655 65.2701C32.4054 65.2701 31.9799 64.493 32.2941 63.0334L32.9599 59.82C33.311 58.0461 32.6456 56.8803 31.3886 56.8803C29.9661 56.8803 28.3579 58.5802 27.6752 60.7425L26.8982 65.1588H25.5498Z" fill="#E4DFDC"/>
</g>
<g id="g32">
<path id="path34" d="M43.9088 60.3169C44.2802 58.2287 43.3374 56.695 41.7492 56.695C40.141 56.695 38.7354 58.3231 38.293 60.7797C37.8874 63.145 38.6242 64.5674 40.0098 64.5674C41.618 64.5674 43.5032 62.7021 43.9088 60.3169ZM41.6548 56.1777C42.966 56.1777 43.9287 56.769 44.446 57.769L45.5914 51.2987H46.9225L44.8343 63.1078C44.6685 64.0306 44.8144 64.5505 45.2599 64.5505C45.6456 64.5505 46.0711 64.1047 46.4425 63.422L46.7568 63.5134C46.294 64.5674 45.5001 65.27 44.5746 65.27C43.6145 65.27 43.2431 64.5674 43.4859 63.2363L43.6145 62.5337C42.5236 64.2363 40.9721 65.27 39.4756 65.27C37.5528 65.27 36.4446 63.6077 36.9246 60.891C37.4246 58.046 39.3098 56.1777 41.6548 56.1777Z" fill="#E4DFDC"/>
</g>
<g id="g36">
<path id="path38" d="M50.596 51.2988H51.9444L49.9674 62.5165C49.7276 63.8277 49.8389 64.5502 50.2648 64.5502C50.6501 64.5502 51.0959 64.1048 51.4643 63.4221L51.7786 63.5134C51.2985 64.5675 50.5215 65.2701 49.5791 65.2701C48.6363 65.2701 48.2848 64.3277 48.6194 62.5537L50.596 51.2988Z" fill="#E4DFDC"/>
</g>
<g id="g40">
<path id="path42" d="M59.9511 58.4687C60.1338 57.3805 59.3226 56.6948 58.12 56.6948C55.8664 56.6948 54.8123 58.8774 54.5349 60.8167C57.623 60.7799 59.6541 60.0029 59.9511 58.4687ZM53.1868 60.6882C53.6665 57.9519 55.6434 56.1779 58.2858 56.1779C60.2454 56.1779 61.522 57.1406 61.2792 58.5259C60.948 60.3167 58.323 61.2968 54.498 61.334C54.4067 63.3478 55.3863 64.6417 57.1603 64.6417C59.1199 64.6417 60.2082 63.0876 60.2082 63.0876L60.5052 63.459C60.5052 63.459 59.397 65.2702 56.7347 65.2702C54.0379 65.2702 52.7068 63.4019 53.1868 60.6882Z" fill="#E4DFDC"/>
</g>
<g id="g44">
<path id="path46" d="M73.9313 60.2112C71.6716 59.5485 69.6635 58.8057 69.6635 56.9719C69.6635 55.2807 71.3547 54.1123 73.82 54.1123C76.3793 54.1123 78.0077 55.3608 78.0077 57.2576H76.8048C76.8048 55.6607 75.6052 54.601 73.6772 54.601C71.9231 54.601 70.7375 55.472 70.7375 56.6235C70.7375 57.9832 72.4287 58.5057 74.4053 59.0887C76.1593 59.6113 78.2761 60.3541 78.2761 62.3137C78.2761 64.1305 76.4909 65.3617 73.8685 65.3617C71.2288 65.3617 69.5063 64.1133 69.5063 62.2164H70.7063C70.7063 63.8133 71.9859 64.873 74.0083 64.873C75.9221 64.873 77.2164 63.9392 77.2164 62.6908C77.2164 61.2224 75.3853 60.6368 73.9313 60.2112Z" fill="#E4DFDC"/>
</g>
<g id="g48">
<path id="path50" d="M86.1403 60.2112C88.0199 60.2112 89.2683 59.1199 89.2683 57.4945C89.2683 55.8807 88.0199 54.7924 86.1403 54.7924H83.1067V60.2112H86.1403ZM81.9067 54.2067H86.2347C88.7939 54.2067 90.5021 55.5179 90.5021 57.4945C90.5021 59.4857 88.7939 60.7969 86.2516 60.7969H83.1067V65.2673H81.9067V54.2067Z" fill="#E4DFDC"/>
</g>
<g id="g52">
<path id="path54" d="M99.9774 61.491L97.2437 55.5977L94.527 61.491H99.9774ZM92.0933 65.2674L97.1952 54.2068H97.8922L102.979 65.2674H101.731L100.215 61.9823H94.3044L92.7876 65.2674H92.0933Z" fill="#E4DFDC"/>
</g>
<g id="g56">
<path id="path58" d="M115.883 57.429H114.683C114.683 55.8035 113.117 54.6009 110.969 54.6009C108.141 54.6009 106.402 56.6549 106.402 59.7371C106.402 62.8192 108.141 64.8733 110.969 64.8733C113.149 64.8733 114.728 63.6248 114.728 61.9336H115.931C115.931 63.9248 113.877 65.3616 110.984 65.3616C107.398 65.3616 105.17 63.1192 105.17 59.7371C105.17 56.355 107.398 54.1126 111.001 54.1126C113.829 54.1126 115.883 55.5035 115.883 57.429Z" fill="#E4DFDC"/>
</g>
<g id="g60">
<path id="path62" d="M119.608 65.2673V54.2067H127.869V54.7924H120.808V59.3113H126.969V59.894H120.808V64.6817H127.869V65.2673H119.608Z" fill="#E4DFDC"/>
</g>
<g id="g64">
<path id="path66" d="M36.3389 78.0019C37.1043 78.0019 37.6103 77.559 37.6103 76.8963C37.6103 76.2422 37.1043 75.7967 36.3389 75.7967H35.1048V78.0019H36.3389ZM34.6165 75.5595H36.3761C37.4185 75.5595 38.1129 76.0937 38.1129 76.8963C38.1129 77.7049 37.4185 78.2391 36.3848 78.2391H35.1048V80.0585H34.6165V75.5595Z" fill="#E4DFDC"/>
</g>
<g id="g68">
<path id="path70" d="M45.2769 77.8791C46.0423 77.8791 46.5483 77.499 46.5483 76.8592C46.5483 76.2224 46.0423 75.7965 45.2769 75.7965H44.0428V77.8791H45.2769ZM43.5544 75.5597H45.3141C46.3565 75.5597 47.0509 76.0795 47.0509 76.8592C47.0509 77.4934 46.5937 77.9249 45.8682 78.0648L47.1595 80.0586H46.6193L45.354 78.1163H45.3228H44.0428V80.0586H43.5544V75.5597Z" fill="#E4DFDC"/>
</g>
<g id="g72">
<path id="path74" d="M52.6782 80.0586V75.5596H56.0404V75.7965H53.1665V77.6362H55.6747V77.8734H53.1665V79.8214H56.0404V80.0586H52.6782Z" fill="#E4DFDC"/>
</g>
<g id="g76">
<path id="path78" d="M61.5449 75.5595H62.1449L64.0786 79.5131L65.9924 75.5595H66.5837V80.0585H66.0954V75.9193L64.0903 80.0585H63.8158L61.802 75.9193V80.0585H61.5449V75.5595Z" fill="#E4DFDC"/>
</g>
<path id="path80" d="M72.3657 75.5595H72.854V80.0585H72.3657V75.5595Z" fill="#E4DFDC"/>
<g id="g82">
<path id="path84" d="M79.053 75.5595V78.3677C79.053 79.2244 79.6902 79.7958 80.6469 79.7958C81.5923 79.7958 82.2295 79.2244 82.2295 78.3677V75.5595H82.4866V78.356C82.4866 79.4018 81.701 80.0988 80.5326 80.0988C79.35 80.0988 78.5703 79.4018 78.5703 78.356V75.5595H79.053Z" fill="#E4DFDC"/>
</g>
<g id="g86">
<path id="path88" d="M88.2109 75.5595H88.8079L90.742 79.5131L92.6584 75.5595H93.2497V80.0585H92.7614V75.9193L90.7563 80.0585H90.4792L88.4681 75.9193V80.0585H88.2109V75.5595Z" fill="#E4DFDC"/>
</g>
</g>
</g>
</g>
</g>
<g id="g90">
<g id="g92">
<g id="g98">
<g id="g100">
<path id="path110" d="M58.8865 12.6684C62.9919 15.219 68.3728 17.3445 68.3728 23.5498C68.3728 27.8416 65.8192 30.358 60.9721 30.358C59.6786 30.358 58.5226 30.1674 57.4106 29.9088C57.6076 30.1347 57.7738 30.3851 57.9881 30.5959C58.2602 30.8662 58.5809 31.0786 58.8775 31.3203C60.0037 31.6489 61.2093 31.8748 62.5633 31.8748C67.4841 31.8748 72.2951 28.9148 72.2951 22.8836C72.2951 16.196 66.3458 13.6887 61.9619 10.9012C60.8597 11.3501 59.8116 11.9222 58.8865 12.6684Z" fill="url(#paint0_linear_31_18)"/>
</g>
</g>
</g>
</g>
<g id="g112">
<g id="g114">
<g id="g120">
<g id="g122">
<path id="path132" d="M41.7299 30.9869C40.0278 33.2815 40.7679 36.611 44.1723 36.0562C44.1723 31.6902 45.468 28.5818 49.8336 28.5818C50.2366 28.5818 50.6177 28.6352 51.0012 28.684C50.9493 28.5731 50.9211 28.4506 50.8719 28.3378C50.2696 28.2634 49.6479 28.2115 48.9832 28.2115C45.7631 28.2115 43.0253 29.2107 41.7299 30.9869Z" fill="url(#paint1_linear_31_18)"/>
</g>
</g>
</g>
</g>
<g id="g134">
<g id="g136">
<g id="g142">
<g id="g144">
<path id="path154" d="M54.311 6.41655C54.311 7.82888 54.7877 8.95738 55.5538 9.92725C56.4974 9.21263 57.5011 8.58184 58.5882 8.09953C57.8499 7.17252 57.3827 6.13048 57.3827 4.86251C57.3827 2.30928 59.1957 0.310895 61.6745 0.310895C64.6352 0.310895 66.2637 3.0487 67.1888 6.45301L69.6684 3.41935C68.114 1.23565 65.4123 -0.0962267 62.2297 -0.0962267C57.6041 -0.0962267 54.311 2.67918 54.311 6.41655Z" fill="url(#paint2_linear_31_18)"/>
</g>
</g>
</g>
</g>
<g id="g156">
<g id="g158">
<g id="g164">
<g id="g166">
<path id="path176" d="M54.4032 11.9767C51.6309 14.804 50.1268 18.8666 50.3321 22.8701C50.4606 24.8658 50.9801 26.839 51.8609 28.631C52.7522 30.42 54.0315 31.9921 55.5321 33.2699C58.5635 35.8163 62.6046 36.9734 66.3781 36.5287C70.1625 36.1118 73.6356 34.1717 75.9478 31.3609C76.8707 30.2524 77.5703 28.9908 78.121 27.6728H77.9154C77.3113 28.9122 76.5527 30.0715 75.6106 31.0576C73.1457 33.5958 69.6708 34.9701 66.2924 34.907C62.9057 34.8645 59.6886 33.4567 57.4068 31.1865C55.1111 28.9288 53.724 25.8564 53.5898 22.6983C53.3932 19.5417 54.454 16.346 56.4975 13.8605C58.5304 11.3678 61.5758 9.62877 64.9376 9.22917C68.2885 8.80927 71.8876 9.8077 74.6073 12.07C75.2678 12.629 75.8772 13.2545 76.4245 13.9338H76.744C76.2053 13.1459 75.6028 12.3997 74.9133 11.7294C72.3199 9.17504 68.6603 7.60858 64.8511 7.59054C64.7977 7.58979 64.744 7.58941 64.6902 7.58941C60.9405 7.58941 57.1091 9.16075 54.4032 11.9767Z" fill="url(#paint3_linear_31_18)"/>
</g>
</g>
</g>
</g>
<g id="g178">
<g id="g180">
<g id="g186">
<g id="g188">
<path id="path198" d="M77.3354 17.4493C77.0677 19.1094 76.0144 20.4108 74.6844 20.7127C74.613 20.7292 74.613 20.8296 74.6844 20.8458C76.0144 21.1476 77.0677 22.4494 77.3354 24.1091C77.3486 24.1903 77.4538 24.1903 77.467 24.1091C77.7343 22.4494 78.788 21.1476 80.1183 20.8458C80.1897 20.8296 80.1897 20.7292 80.1183 20.7127C78.788 20.4108 77.7343 19.1094 77.467 17.4493C77.4606 17.4088 77.4309 17.3888 77.4012 17.3888C77.3715 17.3888 77.3418 17.4088 77.3354 17.4493Z" fill="url(#paint4_linear_31_18)"/>
</g>
</g>
</g>
</g>
</g>
</g>
<defs>
<linearGradient id="paint0_linear_31_18" x1="57.4106" y1="21.3882" x2="72.295" y2="21.3882" gradientUnits="userSpaceOnUse">
<stop stop-color="#FCE5C2"/>
<stop offset="0.563538" stop-color="#ECD2AC"/>
<stop offset="1" stop-color="#845D2F"/>
</linearGradient>
<linearGradient id="paint1_linear_31_18" x1="40.8495" y1="32.1645" x2="51.0011" y2="32.1645" gradientUnits="userSpaceOnUse">
<stop stop-color="#FCE5C2"/>
<stop offset="0.563538" stop-color="#ECD2AC"/>
<stop offset="1" stop-color="#845D2F"/>
</linearGradient>
<linearGradient id="paint2_linear_31_18" x1="54.3111" y1="4.91554" x2="69.6681" y2="4.91554" gradientUnits="userSpaceOnUse">
<stop stop-color="#FCE5C2"/>
<stop offset="0.563538" stop-color="#ECD2AC"/>
<stop offset="1" stop-color="#845D2F"/>
</linearGradient>
<linearGradient id="paint3_linear_31_18" x1="79.2694" y1="21.3391" x2="50.3318" y2="22.866" gradientUnits="userSpaceOnUse">
<stop stop-color="#FCE5C2"/>
<stop offset="0.563538" stop-color="#ECD2AC"/>
<stop offset="1" stop-color="#845D2F"/>
</linearGradient>
<linearGradient id="paint4_linear_31_18" x1="77.4013" y1="17.3887" x2="77.4013" y2="24.1699" gradientUnits="userSpaceOnUse">
<stop stop-color="#FCE5C2"/>
<stop offset="0.563538" stop-color="#ECD2AC"/>
<stop offset="1" stop-color="#845D2F"/>
</linearGradient>
<clipPath id="clip0_31_18">
<rect width="128" height="80.0705" fill="white"/>
</clipPath>
</defs>
</svg>
