<svg width="20" height="20" viewBox="0 0 20 20" fill="none" xmlns="http://www.w3.org/2000/svg">
<g id="material-symbols-light:search">
<path id="Vector" d="M16.237 16.795L11.0187 11.5767C10.602 11.9317 10.1229 12.2064 9.58119 12.4008C9.03952 12.5953 8.49507 12.6925 7.94785 12.6925C6.61341 12.6925 5.48396 12.2306 4.55952 11.3067C3.63507 10.3828 3.17285 9.25362 3.17285 7.91917C3.17285 6.58473 3.63452 5.45501 4.55785 4.53001C5.48118 3.60501 6.61007 3.14195 7.94452 3.14084C9.27896 3.13973 10.409 3.60195 11.3345 4.52751C12.2601 5.45306 12.7229 6.58279 12.7229 7.91667C12.7229 8.49556 12.6204 9.05584 12.4154 9.59751C12.2104 10.1392 11.9409 10.6025 11.607 10.9875L16.8254 16.205L16.237 16.795ZM7.94868 11.8583C9.05424 11.8583 9.98757 11.4778 10.7487 10.7167C11.5098 9.95556 11.8904 9.02195 11.8904 7.91584C11.8904 6.80973 11.5098 5.8764 10.7487 5.11584C9.98757 4.35529 9.05424 3.97473 7.94868 3.97417C6.84313 3.97362 5.90952 4.35417 5.14785 5.11584C4.38618 5.87751 4.00563 6.81084 4.00618 7.91584C4.00674 9.02084 4.3873 9.95417 5.14785 10.7158C5.90841 11.4775 6.84174 11.8581 7.94785 11.8575" fill="#E5E0D4"/>
</g>
</svg>
